<svg width="53" height="53" viewBox="0 0 53 53" fill="none" xmlns="http://www.w3.org/2000/svg">
<g clip-path="url(#clip0_206_4713)">
<path d="M32.3486 34.4966C33.5218 35.0832 34.5828 35.8164 35.5317 36.6963C36.4806 37.5762 37.2829 38.5941 37.9385 39.75H33.8755C32.9438 38.6976 31.8397 37.8867 30.563 37.3174C29.2863 36.748 27.932 36.4548 26.5 36.4375C25.1198 36.4375 23.8345 36.6963 22.644 37.2139C21.4536 37.7314 20.4012 38.4388 19.4868 39.3359C18.5724 40.2331 17.8564 41.2941 17.3389 42.519C16.8213 43.744 16.5625 45.0293 16.5625 46.375H13.25C13.25 45.1156 13.4225 43.8993 13.7676 42.7261C14.1126 41.5529 14.6043 40.4401 15.2427 39.3877C15.881 38.3353 16.666 37.4036 17.5977 36.5928C18.5293 35.7819 19.5472 35.0832 20.6514 34.4966C19.3574 33.5649 18.3568 32.4004 17.6494 31.0029C16.9421 29.6055 16.5798 28.1045 16.5625 26.5C16.5625 25.5856 16.39 24.7316 16.0449 23.938C15.6999 23.1444 15.2254 22.437 14.6216 21.8159C14.0177 21.1948 13.319 20.7204 12.5254 20.3926C11.7318 20.0648 10.8691 19.8923 9.9375 19.875C9.02311 19.875 8.16911 20.0475 7.37549 20.3926C6.58187 20.7376 5.87451 21.2121 5.25342 21.8159C4.63232 22.4198 4.15788 23.1185 3.83008 23.9121C3.50228 24.7057 3.32975 25.5684 3.3125 26.5H0C0 25.6029 0.120768 24.723 0.362305 23.8604C0.603841 22.9977 0.940267 22.1955 1.37158 21.4536C1.8029 20.7118 2.34635 20.0216 3.00195 19.3833C3.65755 18.745 4.37354 18.2188 5.1499 17.8047C4.56331 17.2008 4.11475 16.5021 3.8042 15.7085C3.49365 14.9149 3.32975 14.0954 3.3125 13.25C3.3125 12.3356 3.48503 11.4816 3.83008 10.688C4.17513 9.89437 4.64958 9.18701 5.25342 8.56592C5.85726 7.94482 6.55599 7.47038 7.34961 7.14258C8.14323 6.81478 9.00586 6.64225 9.9375 6.625C10.8519 6.625 11.7059 6.79753 12.4995 7.14258C13.2931 7.48763 14.0005 7.96208 14.6216 8.56592C15.2427 9.16976 15.7171 9.86849 16.0449 10.6621C16.3727 11.4557 16.5452 12.3184 16.5625 13.25C16.5625 14.0954 16.4072 14.9149 16.0967 15.7085C15.7861 16.5021 15.3289 17.2008 14.7251 17.8047C15.4497 18.2015 16.0967 18.6759 16.666 19.228C17.2354 19.7801 17.7529 20.384 18.2188 21.0396C18.6846 20.3494 19.2194 19.7284 19.8232 19.1763C20.4271 18.6242 21.0827 18.1584 21.79 17.7788C22.4974 17.3993 23.2479 17.0973 24.0415 16.873C24.8351 16.6488 25.6546 16.5452 26.5 16.5625C27.3281 16.5625 28.139 16.666 28.9326 16.873C29.7262 17.0801 30.4767 17.3734 31.1841 17.7529C31.8914 18.1325 32.5557 18.6069 33.1768 19.1763C33.7979 19.7456 34.3327 20.3667 34.7812 21.0396C35.2298 20.384 35.7388 19.7801 36.3081 19.228C36.8774 18.6759 37.533 18.2015 38.2749 17.8047C37.6883 17.2008 37.2397 16.5021 36.9292 15.7085C36.6187 14.9149 36.4548 14.0954 36.4375 13.25C36.4375 12.3356 36.61 11.4816 36.9551 10.688C37.3001 9.89437 37.7746 9.18701 38.3784 8.56592C38.9823 7.94482 39.681 7.47038 40.4746 7.14258C41.2682 6.81478 42.1309 6.64225 43.0625 6.625C43.9769 6.625 44.8309 6.79753 45.6245 7.14258C46.4181 7.48763 47.1255 7.96208 47.7466 8.56592C48.3677 9.16976 48.8421 9.86849 49.1699 10.6621C49.4977 11.4557 49.6702 12.3184 49.6875 13.25C49.6875 14.0954 49.5322 14.9149 49.2217 15.7085C48.9111 16.5021 48.4539 17.2008 47.8501 17.8047C48.6437 18.236 49.3597 18.7622 49.998 19.3833C50.6364 20.0044 51.1712 20.6859 51.6025 21.4277C52.0339 22.1696 52.3789 22.9805 52.6377 23.8604C52.8965 24.7402 53.0173 25.6201 53 26.5H49.6875C49.6875 25.5856 49.515 24.7316 49.1699 23.938C48.8249 23.1444 48.3504 22.437 47.7466 21.8159C47.1427 21.1948 46.444 20.7204 45.6504 20.3926C44.8568 20.0648 43.9941 19.8923 43.0625 19.875C42.1481 19.875 41.2941 20.0475 40.5005 20.3926C39.7069 20.7376 38.9995 21.2121 38.3784 21.8159C37.7573 22.4198 37.2829 23.1185 36.9551 23.9121C36.6273 24.7057 36.4548 25.5684 36.4375 26.5C36.4375 28.0872 36.0838 29.5796 35.3765 30.9771C34.6691 32.3745 33.6598 33.5477 32.3486 34.4966ZM43.0625 9.9375C42.5967 9.9375 42.1654 10.0238 41.7686 10.1963C41.3717 10.3688 41.0267 10.6017 40.7334 10.895C40.4401 11.1883 40.1986 11.542 40.0088 11.9561C39.819 12.3701 39.7327 12.8014 39.75 13.25C39.75 13.7158 39.8363 14.1471 40.0088 14.5439C40.1813 14.9408 40.4142 15.2858 40.7075 15.5791C41.0008 15.8724 41.3545 16.1139 41.7686 16.3037C42.1826 16.4935 42.6139 16.5798 43.0625 16.5625C43.5283 16.5625 43.9596 16.4762 44.3564 16.3037C44.7533 16.1312 45.0983 15.8983 45.3916 15.605C45.6849 15.3117 45.9264 14.958 46.1162 14.5439C46.306 14.1299 46.3923 13.6986 46.375 13.25C46.375 12.7842 46.2887 12.3529 46.1162 11.9561C45.9437 11.5592 45.7108 11.2142 45.4175 10.9209C45.1242 10.6276 44.7705 10.3861 44.3564 10.1963C43.9424 10.0065 43.5111 9.92025 43.0625 9.9375ZM9.9375 16.5625C10.4033 16.5625 10.8346 16.4762 11.2314 16.3037C11.6283 16.1312 11.9733 15.8983 12.2666 15.605C12.5599 15.3117 12.8014 14.958 12.9912 14.5439C13.181 14.1299 13.2673 13.6986 13.25 13.25C13.25 12.7842 13.1637 12.3529 12.9912 11.9561C12.8187 11.5592 12.5858 11.2142 12.2925 10.9209C11.9992 10.6276 11.6455 10.3861 11.2314 10.1963C10.8174 10.0065 10.3861 9.92025 9.9375 9.9375C9.47168 9.9375 9.04036 10.0238 8.64355 10.1963C8.24674 10.3688 7.90169 10.6017 7.6084 10.895C7.3151 11.1883 7.07357 11.542 6.88379 11.9561C6.69401 12.3701 6.60775 12.8014 6.625 13.25C6.625 13.7158 6.71126 14.1471 6.88379 14.5439C7.05632 14.9408 7.28923 15.2858 7.58252 15.5791C7.87581 15.8724 8.22949 16.1139 8.64355 16.3037C9.05762 16.4935 9.48893 16.5798 9.9375 16.5625ZM26.5 33.125C27.4144 33.125 28.2684 32.9525 29.062 32.6074C29.8556 32.2624 30.563 31.7879 31.1841 31.1841C31.8052 30.5802 32.2796 29.8815 32.6074 29.0879C32.9352 28.2943 33.1077 27.4316 33.125 26.5C33.125 25.5856 32.9525 24.7316 32.6074 23.938C32.2624 23.1444 31.7879 22.437 31.1841 21.8159C30.5802 21.1948 29.8815 20.7204 29.0879 20.3926C28.2943 20.0648 27.4316 19.8923 26.5 19.875C25.5856 19.875 24.7316 20.0475 23.938 20.3926C23.1444 20.7376 22.437 21.2121 21.8159 21.8159C21.1948 22.4198 20.7204 23.1185 20.3926 23.9121C20.0648 24.7057 19.8923 25.5684 19.875 26.5C19.875 27.4144 20.0475 28.2684 20.3926 29.062C20.7376 29.8556 21.2121 30.563 21.8159 31.1841C22.4198 31.8052 23.1185 32.2796 23.9121 32.6074C24.7057 32.9352 25.5684 33.1077 26.5 33.125ZM46.375 43.0625H53V46.375H46.375V53H43.0625V46.375H36.4375V43.0625H43.0625V36.4375H46.375V43.0625Z" fill="url(#paint0_linear_206_4713)"/>
</g>
<defs>
<linearGradient id="paint0_linear_206_4713" x1="2.5" y1="3" x2="69" y2="69" gradientUnits="userSpaceOnUse">
<stop stop-color="#84C5B7"/>
<stop offset="1" stop-color="#2E62B1"/>
</linearGradient>
<clipPath id="clip0_206_4713">
<rect width="53" height="53" fill="white"/>
</clipPath>
</defs>
</svg>
