<svg width="24" height="24" viewBox="0 0 24 24" fill="none" xmlns="http://www.w3.org/2000/svg">
<path d="M2.5 14.3011C2.86 14.5111 3.32 14.3811 3.53 14.0211L4 13.2011L4.48 14.0311C4.69 14.3911 5.15 14.5111 5.51 14.3111C5.87 14.1011 5.99 13.6511 5.79 13.2911L5.3 12.4511H6.25C6.66 12.4511 7 12.1111 7 11.7011C7 11.2911 6.66 10.9511 6.25 10.9511H5.3L5.77 10.1311C5.98 9.77112 5.86 9.31112 5.5 9.10112C5.32574 9.00412 5.12045 8.97911 4.92799 9.03142C4.73554 9.08374 4.57117 9.20925 4.47 9.38112L4 10.2011L3.53 9.38112C3.42883 9.20925 3.26446 9.08374 3.07201 9.03142C2.87955 8.97911 2.67426 9.00412 2.5 9.10112C2.14 9.31112 2.02 9.77112 2.23 10.1311L2.7 10.9511H1.75C1.34 10.9511 1 11.2911 1 11.7011C1 12.1111 1.34 12.4511 1.75 12.4511H2.7L2.22 13.2811C2.02 13.6411 2.14 14.1011 2.5 14.3011ZM10.5 14.3011C10.86 14.5111 11.32 14.3811 11.53 14.0211L12 13.2011L12.48 14.0311C12.69 14.3911 13.15 14.5111 13.51 14.3111C13.87 14.1011 13.99 13.6511 13.79 13.2911L13.31 12.4611H14.26C14.67 12.4611 15.01 12.1211 15.01 11.7111C15.01 11.3011 14.67 10.9611 14.26 10.9611H13.3L13.77 10.1411C13.8689 9.96829 13.896 9.76355 13.8455 9.57094C13.795 9.37832 13.671 9.21321 13.5 9.11112C13.4153 9.06187 13.3217 9.02978 13.2246 9.01669C13.1275 9.0036 13.0288 9.00977 12.9341 9.03484C12.8394 9.05991 12.7505 9.1034 12.6726 9.16281C12.5947 9.22223 12.5292 9.29641 12.48 9.38112L12 10.2011L11.53 9.38112C11.4811 9.29602 11.4159 9.22145 11.338 9.16173C11.2602 9.10201 11.1712 9.05833 11.0764 9.03322C10.9815 9.00811 10.8826 9.00207 10.7854 9.01544C10.6882 9.02881 10.5946 9.06133 10.51 9.11112C10.15 9.32112 10.03 9.78112 10.24 10.1411L10.71 10.9611H9.75C9.65198 10.9598 9.55468 10.978 9.46374 11.0146C9.3728 11.0512 9.29004 11.1054 9.22026 11.1743C9.15049 11.2431 9.09508 11.3252 9.05727 11.4156C9.01946 11.506 8.99999 11.6031 9 11.7011C9 12.1111 9.34 12.4511 9.75 12.4511H10.7L10.22 13.2811C10.02 13.6411 10.14 14.1011 10.5 14.3011ZM23 11.7011C23 11.2911 22.66 10.9511 22.25 10.9511H21.3L21.77 10.1311C21.8689 9.95829 21.896 9.75355 21.8455 9.56094C21.795 9.36832 21.671 9.20321 21.5 9.10112C21.4153 9.05187 21.3217 9.01978 21.2246 9.00669C21.1275 8.9936 21.0288 8.99977 20.9341 9.02484C20.8394 9.04991 20.7505 9.0934 20.6726 9.15281C20.5947 9.21223 20.5292 9.28641 20.48 9.37112L20 10.2011L19.53 9.38112C19.4811 9.29602 19.4159 9.22145 19.338 9.16173C19.2602 9.10201 19.1712 9.05833 19.0764 9.03322C18.9815 9.00811 18.8826 9.00207 18.7854 9.01544C18.6882 9.02881 18.5946 9.06133 18.51 9.11112C18.15 9.32112 18.03 9.78112 18.24 10.1411L18.71 10.9611H17.76C17.6613 10.9589 17.5631 10.9763 17.4711 11.0124C17.3792 11.0486 17.2954 11.1027 17.2247 11.1716C17.1539 11.2405 17.0976 11.3228 17.059 11.4137C17.0204 11.5047 17.0004 11.6024 17 11.7011C17 12.1111 17.34 12.4511 17.75 12.4511H18.7L18.22 13.2811C18.1703 13.3662 18.1382 13.4604 18.1254 13.558C18.1126 13.6557 18.1194 13.755 18.1455 13.85C18.1716 13.945 18.2164 14.0338 18.2773 14.1113C18.3381 14.1888 18.4139 14.2533 18.5 14.3011C18.86 14.5111 19.32 14.3811 19.53 14.0211L20 13.2011L20.48 14.0311C20.69 14.3911 21.15 14.5111 21.51 14.3111C21.87 14.1011 21.99 13.6511 21.79 13.2911L21.31 12.4611H22.26C22.66 12.4511 23 12.1111 23 11.7011Z" fill="white"/>
</svg>
