<svg width="1339" height="435" viewBox="0 0 1339 435" fill="none" xmlns="http://www.w3.org/2000/svg">
<path fill-rule="evenodd" clip-rule="evenodd" d="M79.4481 23.5678C81.9522 10.5517 94.7274 0 107.982 0H502.803C516.058 0 524.773 10.5517 522.269 23.5678L503.451 121.381C500.946 134.397 488.171 144.949 474.916 144.949H227.703C214.448 144.949 201.673 155.5 199.168 168.517L180.35 266.33C177.846 279.346 186.561 289.897 199.816 289.897H299.423C312.678 289.897 325.453 279.346 327.957 266.33L337.015 219.249C339.519 206.232 352.294 195.681 365.549 195.681H465.156C478.411 195.681 487.126 206.232 484.622 219.249L471.03 289.897L447.678 411.278C445.173 424.295 432.398 434.846 419.143 434.846H24.3228C11.0679 434.846 2.3528 424.295 4.85695 411.278L28.2093 289.897L56.0958 144.949L79.4481 23.5678Z" fill="url(#paint0_linear_2_189)"/>
<path fill-rule="evenodd" clip-rule="evenodd" d="M573.931 23.5678C576.435 10.5517 589.211 0 602.465 0H997.286C1010.54 0 1019.26 10.5517 1016.75 23.5678L997.934 121.381C995.43 134.397 982.654 144.949 969.4 144.949H722.186C708.931 144.949 696.156 155.5 693.652 168.517L674.833 266.33C672.329 279.346 681.044 289.897 694.299 289.897H793.906C807.161 289.897 819.936 279.346 822.44 266.33L831.498 219.249C834.002 206.232 846.778 195.681 860.032 195.681H959.639C972.894 195.681 981.609 206.232 979.105 219.249L965.513 289.897L942.161 411.278C939.657 424.295 926.881 434.846 913.627 434.846H518.806C505.551 434.846 496.836 424.295 499.34 411.278L522.692 289.897L550.579 144.949L573.931 23.5678Z" fill="url(#paint1_linear_2_189)"/>
<path fill-rule="evenodd" clip-rule="evenodd" d="M1067.68 144.655C1054.43 144.655 1041.74 155.223 1039.34 168.259L994.629 411.396C992.232 424.432 1001.03 435 1014.29 435H1089.19L1120.36 265.492C1122.77 252.471 1135.45 241.92 1148.69 241.92H1198.11C1211.37 241.92 1220.17 252.488 1217.77 265.525L1222.11 241.92L1208.83 314.13C1206.44 327.166 1193.75 337.734 1180.49 337.734H1131.07C1117.82 337.734 1109.02 327.166 1111.41 314.13L1107.07 337.734L1089.19 435H1186.61H1261.5C1274.76 435 1287.45 424.432 1289.84 411.396L1334.55 168.259C1336.95 155.223 1328.15 144.655 1314.9 144.655H1240H1142.58H1067.68Z" fill="url(#paint2_linear_2_189)"/>
<defs>
<linearGradient id="paint0_linear_2_189" x1="305.393" y1="0" x2="305.393" y2="434.846" gradientUnits="userSpaceOnUse">
<stop stop-color="#9ABEF4"/>
<stop offset="1" stop-color="#6E9CE0"/>
</linearGradient>
<linearGradient id="paint1_linear_2_189" x1="799.876" y1="0" x2="799.876" y2="434.846" gradientUnits="userSpaceOnUse">
<stop stop-color="#9ABEF4"/>
<stop offset="1" stop-color="#6E9CE0"/>
</linearGradient>
<linearGradient id="paint2_linear_2_189" x1="1191.29" y1="144.655" x2="1191.29" y2="435" gradientUnits="userSpaceOnUse">
<stop stop-color="#9ABEF4"/>
<stop offset="1" stop-color="#6E9CE0"/>
</linearGradient>
</defs>
</svg>
